<svg viewBox="0 0 54 54" xmlns="http://www.w3.org/2000/svg" xml:space="preserve" fill-rule="evenodd" clip-rule="evenodd" stroke-linecap="round" stroke-linejoin="round" stroke-miterlimit="1.5"><ellipse cx="28" cy="28" rx="23" ry="25" fill="#fff" transform="matrix(1.1087 0 0 1.02 -3.543 -1.06)"/><path d="M52.67 38.12c-5.507 5.957-11.427 15.883-26.827 14.926C9.909 52.064 2.403 35.72 2.403 35.72c7.506 3.266 17.773-4.976 29.2-4.785 10.466.166 14.173 7.693 21.066 7.183" fill="#bcd8e4" fill-rule="nonzero"/><g transform="matrix(.99284 0 0 -1.73912 12.231 63.628)"><clipPath id="a"><path d="M21.502 19.55h3.47v1h-3.47z"/></clipPath><g clip-path="url(#a)"><path d="M22.132 19.8c.12-.2.35-.13.54-.18.04 0 0-.08.1-.06.06 0 .06.1.1.1.06.02.08-.05.14-.04.08.02.08.03.13.06.04.02.08.05.15.06.05.02.1 0 .14.03.08.1-.1.16-.03.24 0 .02.14.02.16 0 .08-.06 0-.05-.02-.1-.03-.08-.12-.2.1-.17-.04-.24.6-.1.36 0 .1.1.17-.02.25-.04.14-.05.1 0 .2.07l.2.17c.1.04.27-.03.32.1-.1.04-.13-.06-.22-.04-.1.02-.04.1-.13.14-.15.05-.3-.12-.43-.08.08.1.3.15.1.22-.1.04-.4-.02-.2-.1-.13-.1-.27.12-.45.06-.08-.02-.1-.1-.2-.08-.1.02-.12.12-.07.2-.12.05-.2-.1-.28-.04-.1.06.08.18-.1.22-.1.03-.13-.08-.2-.1-.1 0-.25.14-.3.03.17 0 .23-.22.08-.2-.1 0-.27.2-.24.22-.05.05-.17.04-.2-.02-.1-.1.06-.12-.1-.18-.17-.05-.32 0-.47 0v-.06h-.07c0-.08 0-.1.06-.15.02-.02.07 0 .1-.02s.03-.08.05-.1c.08-.04.42 0 .43-.13" fill="#1d81a4" fill-rule="nonzero" opacity=".9"/></g></g><g transform="matrix(.99284 0 0 -1.73912 12.231 63.628)"><clipPath id="b"><path d="M32.452 21.88h1.55v1.2h-1.55z"/></clipPath><g clip-path="url(#b)"><path d="M32.582 22.44c-.02-.42.35.1.4.1.3-.02.1-.44-.05-.5.14-.33.58-.1.8.1.05.1.03.17.07.23.02.02.2.18.2.2.02.08-.14.34-.26.4-.12.07-.4.04-.55.04-.15 0-.4.1-.5.07-.34 0-.3-.53-.06-.63" fill="#1d81a4" fill-rule="nonzero" opacity=".9"/></g></g><g transform="matrix(.99284 0 0 -1.73912 12.231 63.628)"><clipPath id="c"><path d="M23.932 20.78h2.32v1.42h-2.32z"/></clipPath><g clip-path="url(#c)"><path d="M23.932 20.87c0 .1.08.2.18.26.22.1.15 0 .36 0 .44-.04.4.12.56.34.02 0 .13 0 .17.04v.13c.07.08.07.16.15.24.16.15.5.4.77.3.28-.1.04-.23 0-.43 0-.06.04-.14.02-.2-.08-.17-.08-.1-.24-.17-.17-.07-.37-.13-.5-.24-.1-.08-.15-.2-.25-.26-.23-.13-.53-.1-.8-.07-.16 0-.28-.03-.38.08" fill="#1d81a4" fill-rule="nonzero" opacity=".9"/></g></g><g transform="matrix(.99284 0 0 -1.73912 12.231 63.628)"><clipPath id="d"><path d="M21.202 17.78h6.04v3.85h-6.04z"/></clipPath><g clip-path="url(#d)"><path d="M23.422 19.22c.24-.05.45-.23.18-.38-.1-.06-.26.02-.38-.08-.12-.08-.06-.12-.1-.2-.1-.14-.14-.33-.33-.46-.33-.2-.35.06-.56.06-.24 0-.32-.32-.58-.37-.45-.1-.3.24-.12.4.06.1.2.1.22.18.1.22-.08.1-.16.16-.06.03-.3 0-.2.16.08.06.34.03.42.05.06.4-.5-.1-.47.26.05.3.45.23.7.28.22.05.54.26.13.3-.14.03-.22-.07-.32-.07-.14 0-.26.06-.4.06-.13 0-.06-.23-.23-.02-.04.05 0 .25 0 .33-.02.16-.08.4.25.42.36.04.18-.37.48-.47.12-.04.6 0 .73.02.1.02.1.1.2.13.08.02.18-.03.22-.03.24.08.18.14.32.32.1.1.24.15.33.3.08.14-.1.32.08.43-.2.12-.43.3-.15.47.3.16.2-.23.55-.2.3 0 .53.27.8.3.17.05.56.08.7.03.3-.06.97-.7.53-.8-.43-.07-.67.5-1.14.22.25-.12.08-.16.02-.26-.1-.13-.2-.2-.28-.36.32-.1.47.1.77-.02.04 0 .02-.1.1-.12.06-.02.12.04.18.04.12 0 .25.04.37.04.55-.02 1.07-.42.9-.83-.07-.25-.17-.3-.48-.33-.22-.02-.42-.05-.62-.05-.27 0-.53.2-.77.18-.35-.03-.3-.26-.67-.15-.23.07-.37.23-.6.28-.17.03-.6 0-.62-.15" fill="#1d81a4" fill-rule="nonzero" opacity=".89"/></g></g><g transform="matrix(.99284 0 0 -1.73912 12.231 63.628)"><clipPath id="e"><path d="M19.242 21.45h2.7v1.93h-2.7z"/></clipPath><g clip-path="url(#e)"><path d="M21.622 22.86c.22-.08.1-.18.16-.3.04-.05.22-.22.16-.3-.04-.08-.34 0-.43-.08-.1-.06-.03-.23-.1-.3-.13-.2-.43-.2-.7-.2-.5 0-.36.16-.04.37-.77.03-.28-.4-.7-.6-.05.08-.1.05-.1.16-.05-.02-.13-.02-.2-.1-.27.3.33.53.48.73-.25.15-.82-.4-.7-.03 0 .03.17.03.2.13 0 .06-.2.1-.17.2.06.15.38.04.52.12-.2.23-.72.08-.76.5-.02.12.07.28.27.2.23-.07.07-.2.4-.24.42-.06.58.18.95.18.32 0 .62-.17.75-.4" fill="#1d81a4" fill-rule="nonzero" opacity=".9"/></g></g><g transform="matrix(.99284 0 0 -1.73912 12.231 63.628)"><clipPath id="f"><path d="M25.842 25.78h6.93v1.98h-6.93z"/></clipPath><g clip-path="url(#f)"><path d="M27.102 26.3c.24-.43.7-.3 1.07-.4.08-.02 0-.15.2-.1.13 0 .13.16.23.18.1.04.14-.1.26-.08.14.03.14.07.25.12.1.04.17.1.3.13.1.03.17-.04.27.06.16.2-.22.33-.06.48.05.02.3.02.36-.02.16-.1 0-.1-.05-.2-.05-.15-.23-.4.22-.33-.08-.5 1.17-.18.7.02.2.16.35-.07.5-.12.3-.06.24.02.4.16.1.06.32.3.42.33.2.1.53-.04.63.2-.2.1-.26-.1-.44-.07-.2.05-.1.2-.27.28-.28.1-.57-.23-.85-.15.2.17.64.3.2.43-.2.07-.8-.05-.37-.2-.26-.22-.53.23-.9.12-.15-.05-.22-.23-.42-.18-.2.05-.2.26-.1.4-.25.12-.37-.2-.56-.07-.18.13.17.37-.18.45-.22.05-.28-.16-.42-.18-.2-.03-.5.26-.6.03.33 0 .45-.43.15-.42-.17 0-.54.4-.48.47-.1.1-.34.08-.42-.03-.16-.2.14-.24-.2-.36-.33-.1-.6.02-.92.02l-.02-.15c-.04.02-.08.02-.12.02 0-.18-.02-.2.12-.3.04-.04.14 0 .2-.02.07-.05.07-.17.1-.18.15-.12.82-.04.84-.3" fill="#1d81a4" fill-rule="nonzero" opacity=".89"/></g></g><g transform="matrix(.99284 0 0 -1.73912 12.231 63.628)"><clipPath id="g"><path d="M21.302 27.77h5.49v-3.95h-5.49v3.95Z"/></clipPath><g clip-path="url(#g)"><path d="M24.002 27.7c.5.38.38-.8.92-.66.4.1.2.43.73.2.5-.2.12-.3.2-.63.3.02.43-.24.1-.27-.07-.02-.16.13-.32.12-.14-.02-.32-.14-.3-.25.12 0 .28.02.38-.03.16-.05.22-.16.34-.2.28-.14.52-.12.65-.42 0-.03.1-.05.1-.13 0-.04-.13-.08-.13-.1 0-.04-.04-.12-.04-.17 0-.03.16-.05.14-.1-.02-.2-.33-.18-.53-.16-.65.05.1.14-.08.3-.1.13-.26-.02-.37-.03-.1 0-.27.2-.4.04-.34-.3.46-.3.58-.33.2-.05.62-.35.34-.48-.22-.1-.36.12-.57.05-.22-.06-.24-.44-.58-.4-.2.04-.43.37-.4.5 0 .06.1.06.1.1v.16c.03.04-.05.1-.03.17 0 .07.1.1.12.16.02.13-.16.52-.42.34-.18-.1.06-.13.06-.24.02-.23-.14-.15-.2-.28-.1-.2.18-.4-.2-.52-.43-.14-.33.23-.55.33-.17-.36.28-.54-.3-.73-.2-.07-.43-.23-.64-.2-.13 0-.13.02-.23.05.04 0-.22.15-.2.13-.14.14-.1.2-.33.27-.1.03-.2-.03-.3.05-.04.05 0 .23 0 .28-.02.1-.08.2-.1.32-.04.23.06.26.2.46.1-.1.18-.3.4-.15.2.15-.14.23 0 .4-.14.02-.36-.03-.46.02-.3.1.02.13-.02.3-.02.2-.26.1-.32.25-.08.23.26.13.38.16.16.05.22.18.32.23.2.07.3-.04.47 0 .3.04.13.23.3.3.24.1.22-.16.26-.28.34.25.47.26.52.65.4 0 .3.2.4.42" fill="#1d81a4" fill-rule="nonzero" opacity=".9"/></g></g><g transform="matrix(.99284 0 0 -1.73912 12.231 63.628)"><clipPath id="h"><path d="M31.532 19.34h4.05v2.13h-4.05z"/></clipPath><g clip-path="url(#h)"><path d="M31.832 21.13c-.1.2.03.36.27.25.24-.12.2-.27.54-.1.1.06.1.14.27.12.12-.03.13-.14.28-.16.28 0 .4.26.7.23.17 0 .37-.05.48-.14.13-.1.05-.14.1-.24.08-.16.05-.08.22-.17.1-.05.18-.13.3-.18.07-.03.26-.03.3-.06.1-.1.03-.18.08-.27.05-.07.15-.1.2-.18.04-.1.03-.3-.1-.3 0 .17-.15.2-.33.18-.3-.05-.24-.2-.18-.36.03-.07.2-.43-.03-.43-.06 0-.32.56-.27.14-.22 0-.22.28-.4.34-.03.02-.17.02-.22 0-.12 0-.14-.07-.24-.1-.26-.06-.37.03-.56-.1-.05-.05.02-.2-.16-.14-.1.03-.1.15-.16.2-.3.27-.7.05-1.04.18-.3.12-.33.67-.35.9-.02.14.03.42.3.38" fill="#1d81a4" fill-rule="nonzero" opacity=".9"/></g></g><path d="m40.529 33.75-.07-.174-.099-.104-.08-.209-.039-.174v-1.286l.03-.261v-.226l.06-.14.129-.173.198-.105.199-.174.099-.174.08-.052.128-.174.199-.208.169-.174.437-.383.178-.174.437-.348.199-.052h.496l.338-.035.178.07.16.104h.138l-.337-.26.119-.227v-.139l-.228.348h-.934l-.139.035-.159.104-.238.244-.198.139-.269.208-.218.174-.199.21-.158.208-.199.174-.169.139-.099.052h-.07l.12-.226.119-.174.1-.104.128-.07.12-.087.198-.139.437-.435.129-.104-.1-.087-.099.052-.367.417-.229.174-.158.122h-.14l-.099-.035.04-.295.05-.279v-.295l.119-.452.218-.348.795-.922-.1-.104-.099.174-.645.695-.16.209-.158.296-.1.173-.03.383-.049.348-.04.226.04.383-.198.452-.15.174-.128.034v-.173l.03-.313.04-.348v-.174l.297-.522.06-.174.03-.226-.18.174-.198.348-.159.174-.05.121-.02.14-.099.173-.07.035-.029-.417v-.261l.12-.522.138-.4.1-.313.139-.278.099-.278.129-.209.238-.278.14-.261.158-.348-.248-.522-.14.47-.079.243-.119.174-.178.174-.16.278-.118.244-.04.174-.1.139-.148.174-.03-.174.139-1.078.03-.313v-.348l-.08-.835-.1-.243-.178.487v.313l.05.313.03.295v.244l-.04.174-.03.278-.07.209v.26l.03.383.03.174v.174-2.348l-.04-.417-.099-.174-.07.052-.079.296-.05.26v.227l.04.26v.227l-.06.104-.049.348v.295l.1.348v.418l-.06.174.02.608-.1.296-.158.052-.199-.14-.129-.277-.06-.313-.099-.453-.139-.556-.179-.348-.238-.817-.1-.313-.218-.974-.05-.609s-.267-.643-.267-.696c0-.07-.14-.347-.14-.347l.13-.348v-.261l-.199.522-.139-.105h-.447l-.198.122-.219.122h.239l.268-.07h.198l.13.07.099.121.02.07h-.358l-.1.035-.198.139-.169.122h-.198l-.03.139h.328l.198-.174.14-.07h.198l.149-.052.119.122.08.122.059.208.1.279.039.208.03.261v.087l-.1-.087-.099-.174-.129-.243-.437-.383-.178-.07.06.175.198.173.149.174.168.261.14.174.03.174-.249-.087s-.159-.104-.199-.174c-.02-.035-.367-.26-.367-.26l-.298-.105-.318-.035-.198-.052-.238-.174-.199-.104-.08.07.12.138.119.122h-.298l.06.14.129.173.099-.139.13-.104h.217l.229.07.159.034.139.104.198.105.16.07.148.104.1.104-.229-.052-.298-.087-.278-.122-.337-.087h-.616l-.149-.07-.179-.086-.297-.035h-.398l-.178.087.07.104h.228l.198-.035h.328l.119.087.198.122h.497l.218.087.199.087.298.087.129.104h.238l.199.035.238.104.119.087.12.122.148.122.05.209.04.139v.278l-.03.209-.16-.07-.118-.122-.199-.07h-.198l-.08-.086-.1-.122-.118-.139-.239-.122.219.209.08.104.059.122h-.556l-.13.087.13.052s.149 0 .268.035c.12 0 .258.052.258.052h.159l.218.07.16.034.138.087.1.14h.138l.14.034.099.174.03.14-.04.086-.328.035H36.4s-.179 0-.219-.035l-.159-.07.298.279-.665.609.13.087.317-.279.179-.173.168-.053.219-.052h.238l.228-.087h.249l.159-.035h.198l.05.087.129.21.08.173.049.26.07.349.128.347.05.07-.258-.122-.139-.052h-.13l-.466-.087-.218-.139-.298-.07h-.268l.1.174h.396l.179.087.228.087.398.14.198.052.268.139.15.104.168.14.119.138.12.174.118.209.03.313.03.348v.8l.03.348v.574l-.02.243-.03.26-.04.227-.099.243-.12.122h.468l.158.087h.17l.098.035.13.104.04.14h.099l.069-.175.1-.104.168.052h.08v-.087h.079l.149.07-.02.017ZM40.27 21.107l-.168.07-.179.104.07.07.218.052.219.104.139.07.149.173.03.174h-.1l-.129-.226-.298-.07-.248-.034-.199-.07-.168.07-.199.174s-.1.07-.149.174l-.119.226v.174l-.03.174-.02.278v.313c0 .122-.08.487-.08.487l-.128-.07-.1-.278h-.099l-.139.122-.149.174-.158-.07s-.15-.035-.199-.122c-.04-.104-.258-.173-.258-.278 0-.087-.298-.66-.298-.66l-.357-.522-1.232-1.044.08-.122 1.211.87-.1-1.217-.257-.296s-.229-.174-.249-.383c-.02-.208-.327-.487-.327-.487l.04-.278.168.226.15.244.118.26.298.348.199.087.06-.817-.02-.4-.08-.348-.198-.47-.249-.47-.625-.869.526.435.02-.522.139-.278v1.096l.159.174.238.313.149.243.05.348.079.4-.04.591v1.844l.05.278.199.296.148.139-.02-.696v-.556l-.099-.209-.198-.296-.03-.295.367.348v-1.044l.02-.4v-.348l.328.209-.08.174-.119.452v1.443l-.02.348.02.296v.313l.02.383.199.695.258.122v-.26l-.03-.436-.06-.417-.258-.348-.03-.26.18.173-.06-.87v-.347l.168.313-.02.556.04.296.06.243.06.174.04.296.059.278v.209l.139-.591.06-.418.069-.452v-1.096l-.1-.4-.158-.139h-.397l.238-.174-.12-.521.368.417-.04-.383-.06-.347h.16l.099.174v.434l.169-.434.02-.227.198-.121.13-.105-.25.522-.039.174-.03.226.398-.243.248-.053v.105l-.238.07-.249.173-.119.174v.209l.03.348v.782l.06.348v.522l.357-.296.199-.174.248-.121.198-.053.179-.087.179-.139-.328.348.03.035ZM40.757 22.48l.199-.277.179-.348.357-.748.457-1.391.02-.87-.1-.696-.139-.313v-.173l.16.382.138.591v.783s.199-.348.199-.383l.04-.417-.06-.243-.12-.696.1-.452.1-.174-.1.591v.278l.13.418.237-.661.02-.261c0-.052.1-.313.1-.313l-.03.591-.1.279-.05.173.378-.208.338-.609-.338.696-.337.174-.1.208-.099.174v.296l-.04.174-.08.226-.069.174-.099.295-.318.87.725-.348.228-.174.348-.278.576-.383.695-1.53-.596 1.53.07.035.496-.522.536-.26-.566.417-.417.435h-.198l-.12.07-.436.312-.328.244-.298.243-.238.105-.298.208-.169.174-.198.4-.15.348-.138.452-.12.348-.158.278-.1.296-.119.07.05-.418-.02-.278-.03.087Z" fill="#1d81a4" fill-rule="nonzero"/><path d="m41.949 26.846.178.174h.17l.238.417h.248c.119 0 .198-.034.248 0l.258.053.219.173.198.383.228.26.229.28.149.277.238.279.278.347.199.453.198.278.14.174.277.174.318.121-.497-.347-.248-.296-.198-.452-.08-.209-.198-.243-.318-.418-.179-.348-.139-.173-.198-.14.466.174h.199l.159.07.178.087.259.07-.259-.261h1.112l.268-.07h-.436l-.576-.035-.397-.035h-.536l-.259-.087-.238-.173-.169-.279-.168-.243-.219-.035.526-.052h.656l.198.035.169.087.169.208.278.244-.348-.522.14.052.198.105.198.139.249.087h.218l-.02-.174h-.318l-.218-.14-.139-.173-.199-.07-.099-.087h-.159l-.238-.035.199-.347.07-.174-.23.295-.178.174-.218.052h-.268l-.348.035h-.268l-.238.07-.258.035-.318-.087-.1-.174-.178-.087-.169-.052-.258.052.198.121-.04-.017ZM41.452 25.368l.199-.209.139-.139h.198l.1-.226.228-.174.268-.14h.199l.02.053.178.243.199.487.367.557.497.522-.666-.94-.129-.347-.149-.435-.198-.174.367-.226.397-.052h.298l.199.139.268.348h.794l.675-.07-.963-.07-.447-.034-.148-.122-.15-.243-.148-.174.744-.574.12-.261-.2.174-.595.452h-.377l-.238-.035h-.12v-.26l.269-.4.198-.383.179-.452v-.348l.1-.383.257-.522v-.626l-.099-.243v.452l-.1.383-.148.313-.1.295-.099.435v.348l-.258.417-.258.348-.1.261-.297.348-.258.209-.338.208-.228.122-.229.174-.159.052-.04.26-.198.14-.07.052-.198.105.228.295.02.07Z" fill="#1d81a4" fill-rule="nonzero"/><path d="m43.21 20.724.238-.07.199-.121.248.104h.595l.467-.07h.328l.258.123h.695l.278-.105h-.685l-.258-.052v-.104l.03-.174-.1-.174v.174l-.03.208-.03.053-.238-.07-.218-.035-.338.035h-.724l-.17-.104.438-.174.297-.174.298-.226h.368l.06-.14h.774l.228-.034.1-.07.664-.07-.695-.034-.119.07-.198.034h-.725l-.06-.278-.03-.104-.03.278-.039.174h-.09l-.158.035.328-.748-.417.73-.249.226-.258.14-.178.052-.239.174-.218.087-.199.121-.198.105-.258.139.258.052v.017ZM40.072 20.568l.249-.435.158-.243.17-.174.198-.226.159-.261.168-.296.13-.435.099-.208v-.313l-.05.173-.12.348-.118.313-.12.296-.148.243-.15.174-.148.105.546-.922.03-.174-.616.957-.03.121-.07.122-.148.174-.12.174-.059.47-.01.017Z" fill="#1d81a4" fill-rule="nonzero"/><g transform="matrix(.99284 0 0 -1.73912 12.231 63.628)"><clipPath id="i"><path d="M27.522 25.25h1.8v1.37h-1.8z"/></clipPath><g clip-path="url(#i)"><path d="M27.802 26.22c.06-.25-.4-.12-.24-.42.02-.04.18-.15.24-.23.06-.13-.02-.2.16-.28.3-.14.43.08.5.24.1.13.03.13.2.24.1.08.15.05.28.1.5.27.52.84-.15.73-.1 0-.2-.07-.3-.1-.1 0-.2.07-.3.07-.22 0-.5-.18-.44-.37" fill="#1d81a4" fill-rule="nonzero" opacity=".9"/></g></g><g transform="matrix(.99284 0 0 -1.73912 12.231 63.628)"><clipPath id="j"><path d="M25.962 26.4h1.8v-.96h-1.8v.97-.01Z"/></clipPath><g clip-path="url(#j)"><path d="M26.082 26.4c.14 0 .3-.04.42-.04.27 0 .4.1.63.02.1-.03.12-.13.2-.15.1-.04.3.02.37-.04.16-.16-.06-.42-.12-.52-.16-.16-.33-.26-.6-.24-.05 0-.2 0-.27.03-.07.08 0 .2-.07.23-.15.1-.37.06-.53.2-.14.12-.24.4.02.5" fill="#1d81a4" fill-rule="nonzero" opacity=".8"/></g></g><g transform="matrix(.99284 0 0 -1.73912 12.231 63.628)"><clipPath id="k"><path d="M31.202 27.2h2.23v-1.84h-2.23v1.85-.01Z"/></clipPath><g clip-path="url(#k)"><path d="M31.872 25.4c.2 0 .43 0 .6.06.13.06.15.18.28.22.16.05.34-.08.48.04.12.1 0 .22-.1.3.06.07.18.12.3.15-.12.14-.4.2-.52.06-.15-.17.1-.22-.24-.27-.16-.03-.4-.03-.38.14.02.1.2.1.22.17.04.1-.04.2-.02.27.1.18.4.12.5.23.17.18-.13.3-.36.34-.08.03-.18-.02-.26 0-.1 0-.18.14-.33.1-.32-.06.03-.25.1-.35-.22-.05-.07-.6-.14-.8-.17.02-.43.17-.57.17-.08 0-.24-.05-.24-.16 0-.13.1-.04.2-.12.1-.06.15 0 .2-.13.05-.08-.1-.16-.07-.25.04-.17.08-.22.34-.16" fill="#1d81a4" fill-rule="nonzero" opacity=".8"/></g></g><g transform="matrix(.99284 0 0 -1.73912 12.231 63.628)"><clipPath id="l"><path d="M33.702 22.02h2.22v1.3h-2.22z"/></clipPath><g clip-path="url(#l)"><path d="M34.632 22.28c.14 0 .32-.03.44 0 .2.05.3.18.5.24.13-.15 0-.4.34-.5.05.1 0 .18 0 .26v.23c-.03.18-.03.33-.32.23-.1.2.35.3-.06.44-.28.1-.36-.1-.5-.18-.07-.04-.23 0-.3-.02.03 0-.2-.33-.2-.07 0 .25.35.2.45.38-.16.12-.52-.08-.75-.13-.32-.06-.34-.17-.52-.42.18-.08.32-.03.5-.18.15-.1.2-.2.4-.25" fill="#1d81a4" fill-rule="nonzero" opacity=".8"/></g></g><g transform="matrix(.99284 0 0 -1.73912 12.231 63.628)"><clipPath id="m"><path d="M31.102 22.03h2.04v1h-2.04z"/></clipPath><g clip-path="url(#m)"><path d="M31.802 22.34c.15-.07.16-.3.34-.3.14 0 .15.15.25.17.1.03.26-.07.37-.08.13-.02.25-.08.36-.08.04.1-.08.1-.12.17-.04.1 0 .18 0 .27-.04.12-.16.1-.2.17-.05.07.05.16.02.25-.17 0-.28-.08-.42-.03-.12.05-.1.18-.3.16-.15-.02-.17-.14-.3-.2-.07-.02-.2.03-.3.02-.13-.03-.22-.1-.33-.14 0-.14-.16-.28.06-.36.18-.07.4.1.58 0l-.01-.02Z" fill="#1d81a4" fill-rule="nonzero" opacity=".85"/></g></g><g transform="matrix(.99284 0 0 -1.73912 12.231 63.628)"><clipPath id="n"><path d="M30.802 20.2h2.62v-.98h-2.62v.98Z"/></clipPath><g clip-path="url(#n)"><path d="M30.942 19.7c.43-.05.9.05 1.2-.23.12-.1.02-.18.22-.24.12-.03.2 0 .3.02.15 0 .23.06.37.08.1 0 .34-.05.38.08.06.14-.15.15-.2.24-.07.12-.03.24-.1.35-.23.33-.52.14-.84.1-.1 0-.22.06-.3.02-.17-.05-.15-.18-.27-.24-.25-.1-.43.1-.66.08-.2-.02-.38-.24-.1-.24" fill="#1d81a4" fill-rule="nonzero" opacity=".9"/></g></g><g transform="matrix(.99284 0 0 -1.73912 12.231 63.628)"><clipPath id="o"><path d="M28.672 22.6h4.4v1.58h-4.4z"/></clipPath><g clip-path="url(#o)"><path d="M29.662 22.67c.3-.13.5 0 .77.05.27.03.5-.05.7.1.14.1 0 .2.18.25.1.04.37 0 .47-.03.26-.05.6-.2.9-.13.26.06.46.34.38.56-.04.15-.16.16-.3.26-.15.1-.2.13-.3.28-.13.16-.03.17-.33.1-.2-.02-.27-.12-.4-.2-.43-.26-.23.03-.6.05-.14 0-.28-.13-.36-.2-.02.13-.12.38-.32.42-.1.04-.55-.04-.63-.14-.13-.18.17-.23-.15-.37-.23-.1-.45 0-.63-.12-.2-.14-.02-.22-.08-.4-.06-.15-.4-.2-.23-.4.13-.15.74-.07.95-.07" fill="#1d81a4" fill-rule="nonzero" opacity=".9"/></g></g><g transform="matrix(.99284 0 0 -1.73912 12.231 63.628)"><clipPath id="p"><path d="M27.552 23.65h5.32v2.68h-5.32z"/></clipPath><g clip-path="url(#p)"><path d="M28.332 23.75c-.06.26.5.36.44.57-.02.1-.2.1-.3.1-.22.05-.16-.02-.34-.03-.33-.03-.5.05-.57.3-.02.17-.02.43.18.48.24.07.5-.28.8-.18.28.08.3.38.52.5.1.04.22.04.3.1.14.07.2.25.4.28.4.08.05-.2.13-.38.15-.27.3.25.4.3.05.03.18-.05.26-.02.08.03.1.1.16.14.1.05.22.22.3.27.06.03.06.2.25.08.12-.08-.02-.2.02-.3.07-.22.27-.3.3-.57-.2-.02-.48.04-.6-.07-.1-.08-.14-.15-.04-.23.16-.13.23-.03.35.03.25.1.4.4.63.2.1-.05 0-.18.1-.25.1-.06.25-.03.35-.1.04-.03-.04-.14 0-.16.04-.05.1-.03.14-.06.06-.03.18 0 .25-.03.2-.15.06-.33-.1-.38-.07 0-.15.02-.2 0-.13-.03-.2-.16-.3-.16-.28-.07-.44.2-.62-.1-.1.14-.35.12-.5.1.07-.06.42-.16.14-.2-.2-.04-.38.17-.54.17-.3 0-.12-.16-.25-.22-.1-.1-.3-.05-.47-.1-.14-.03-.22-.1-.4-.13-.2 0-.25.05-.43.07-.25.02-.7-.32-.75-.05" fill="#1d81a4" fill-rule="nonzero" opacity=".9"/></g></g><g transform="matrix(.99284 0 0 -1.73912 12.231 63.628)"><clipPath id="q"><path d="M25.472 19.8h1.9v2.38h-1.9z"/></clipPath><g clip-path="url(#q)"><path d="M25.472 22.05c.34-.15.43.16.7.13.23-.03.3-.47.37-.62.13-.26.1-.18.4-.3.23-.1.35-.33.4-.5.08-.23-.05-.25-.1-.46-.07-.26.24-.5-.25-.5-.43 0-.23.18-.35.43-.13.25-.5.3-.35.6-.24.07-.38-.2-.63 0-.08.07-.14.38-.1.46.1.17.43.08.33.33-.1.18-.37.15-.4.42" fill="#1d81a4" fill-rule="nonzero" opacity=".9"/></g></g><g transform="matrix(.99284 0 0 -1.73912 12.231 63.628)"><clipPath id="r"><path d="M23.402 22.36h3.38v1.92h-3.38z"/></clipPath><g clip-path="url(#r)"><path d="M25.232 22.42c.1-.04.22-.08.34-.06.08 0 .14.08.2.08.13.02.17-.03.27-.03.28 0 .85.02.73.36-.02.04-.24.2-.3.23l-.2.33c-.07.15 0 .12-.17.23-.12.08-.28.13-.4.2.16.22.6.14.18.4-.2.08-.5.16-.75.1-.2-.07-.2-.17-.33-.28-.08-.08-.18-.13-.3-.22-.23-.17-.06-.4-.4-.5-.27-.1-.47 0-.64-.25-.14-.25-.04-.4.25-.48.15-.05.5-.1.66-.03.28.1.06.38.52.43.6.06.2-.52.53-.52" fill="#1d81a4" fill-rule="nonzero" opacity=".8"/></g></g><g transform="matrix(.99284 0 0 -1.73912 12.231 63.628)"><clipPath id="s"><path d="M18.272 22.4h5v3.45h-5z"/></clipPath><g clip-path="url(#s)"><path d="M21.052 23.33s.06-.06.02-.13c.25-.03.16-.1.1-.18h-.2c-.08-.06-.06-.13-.1-.2-.22-.3-.08-.38.34-.4.46-.06 1.35.02 1.66.34.14.15.42.4.42.6 0 .33-.28.15-.53.23-.2.06-.1.17-.2.22-.1.06-.24 0-.34.03-.48.15-.03.37-.17.62-.1.16-.43.16-.53.35-.02.05.04.15 0 .2-.06.1-.16.1-.24.2-.2.27-.07.24-.4.35-.23.08-.44.28-.7.28-.18-.2-.18-.23-.06-.46.02-.06.1-.2.14-.22.08-.08.24.02.24-.14-.2.04-.38.06-.52-.05-.04-.06.02-.16-.04-.2-.08-.1-.3-.06-.35-.14-.16-.22.27-.1.4-.2.17-.2-.2-.1-.2-.1-.14-.02-.22.08-.36-.05.2-.16-.1-.17-.23-.22-.04 0-.1.05-.14.03-.07-.02-.04-.1-.08-.12-.15-.07-.15-.1-.3-.16-.13-.03-.56-.02-.3-.2.1-.06.4 0 .53 0 .2.02.37.08.57.05.22-.05.37-.14.57-.18.32-.06.73-.15 1.03-.14" fill="#1d81a4" fill-rule="nonzero" opacity=".89"/></g></g><g transform="matrix(.99284 0 0 -1.73912 12.231 63.628)"><clipPath id="t"><path d="M24.862 20.74h5.56v3.68h-5.56z"/></clipPath><g clip-path="url(#t)"><path d="M27.522 21.98c.04-.13.26-.36.46-.34.3.05.16.37.46.25.1-.07.1-.15.16-.2.06-.08.13-.15.2-.2.02-.02.13.02.15-.02.07 0 .05-.12.07-.12.04-.03.28-.07.3-.1.2-.15.34-.64.82-.5.3.1.24.26.1.4-.08.06-.2.06-.3.13-.06.04-.02.17-.13.24.12.03.28-.06.36-.04.16.04.36.16.1.28.12.16.26.27.04.37-.2.1-.3-.03-.47-.02-.6.04-.2.46-.5.58.3.15.64.2.17.37-.04 0-.3.08-.37.08-.13 0-.3-.2-.44-.2-.5.05.34.36.27.54-.06.16-.28.04-.4.1-.17.13-.08.27-.2.4-.1.07-.25.07-.34.12-.12.1-.05.2-.16.25-.28.15-.62-.04-.75-.23-.04-.05.05-.14 0-.2-.06-.07-.13-.03-.2-.07-.02-.03-.33-.2-.37-.2-.22 0-.5.27-.68.36.17.27-.3.27-.5.25-.12 0-.2.02-.32-.02-.26-.1-.17-.12-.17-.28.02-.56.66-.44 1.16-.46.27 0 .53.02.55-.24.02-.32-.5-.2-.5-.53.03-.27.36-.2.58-.35.07-.04-.02-.13.07-.18.06-.03.17.02.24 0 .06-.03.14 0 .2 0 .05-.03.03-.17.08-.2.1-.04.2-.06.37-.04" fill="#1d81a4" fill-rule="nonzero" opacity=".9"/></g></g><g transform="matrix(.99284 0 0 -1.73912 12.231 63.628)"><clipPath id="u"><path d="M22.452 22.4h2.72v2.2h-2.72z"/></clipPath><g clip-path="url(#u)"><path d="M24.562 24.56c.02-.1.1-.14.22-.2.16-.1.16-.02.28-.17 0 0 .1-.27.1-.22 0-.2-.03-.08-.14-.18-.08-.06-.16-.08-.24-.16-.04-.07.04-.16-.02-.23-.16-.13-.5-.08-.7-.18-.1.06-.17.18-.17.26-.34 0-.3-.16-.4-.3-.06-.1-.06-.12-.16-.22-.04-.05-.16-.03-.2-.07-.04-.05 0-.13-.04-.2-.1-.1-.37-.45-.6-.24-.15.13.05.22.1.32.1.08.17.2.24.3.04.03.04.1.06.12.06.05.16 0 .22.04.1.1 0 .22.06.33.16.3.5.02.73.22.3.18-.1.4 0 .62.1.14.5.24.68.16" fill="#1d81a4" fill-rule="nonzero" opacity=".89"/></g></g><g transform="matrix(.99284 0 0 -1.73912 12.231 63.628)"><clipPath id="v"><path d="M29.142 19.13h1.1v2.1h-1.1z"/></clipPath><g clip-path="url(#v)"><path d="M29.162 21.05c.05-.1.18-.32.17-.4-.02-.12-.2-.1-.2-.22 0-.14.3-.25.32-.37.02-.14-.24-.05-.1-.25.06-.07.2-.08.25-.14.1-.15 0-.2.2-.35.1-.06.3-.22.4-.14.06.07-.13.33-.18.37.28.1.26.2.12.5-.02.05-.02.1-.05.16-.04.07-.1.04-.12.14-.02.1.1.17.1.27 0 .5-.62.83-.94.48" fill="#1d81a4" fill-rule="nonzero" opacity=".8"/></g></g><g transform="matrix(.99284 0 0 -1.73912 12.231 63.628)"><clipPath id="w"><path d="M28.402 24.1h1.8v1.64h-1.8z"/></clipPath><g clip-path="url(#w)"><path d="M29.072 25.72c.46.05.26-.37.4-.52.06-.05.27 0 .32-.08.12-.1 0-.26.06-.37.08-.17.46-.28.32-.52-.16-.3-.44.03-.67.08-.27.07-.35-.15-.6-.12-.24.03-.14.1-.22.24-.06.07-.2.18-.24.25-.1.2.04.1.12.24.04.12.02.25.08.35.06.1.2.1.28.18.06.08.02.24.15.3" fill="#1d81a4" fill-rule="nonzero" opacity=".89"/></g></g><g transform="matrix(.99284 0 0 -1.73912 12.231 63.628)"><clipPath id="x"><path d="M32.062 21.7h3.42v3.04h-3.42z"/></clipPath><g clip-path="url(#x)"><path d="M32.872 23.2c-.1-.14-.45-.2-.1-.34.16-.05.34.05.48.05.54 0-.03-.32.08-.48.05-.07.23-.1.3-.1.22-.02.36 0 .55-.1.23-.14.37-.42.62-.5.2-.04.5.04.68.1.02.34-.25.18-.43.4-.07.08-.04.2-.14.28-.07.07-.24.08-.33.13-.16.1-.3.2-.32.35-.03.12.02.23-.17.27-.12.03-.36-.12-.46-.03-.08.08.03.2.14.2 0 .14-.2.06-.3.14-.1.1-.06.23-.07.34-.17.03-.35 0-.5.03 0-.05-.02-.1 0-.16-.17-.03-.17.08-.15.17.22.12.6.34.86.32.05.06.1.2.03.25-.1.12-.23 0-.32-.04-.16-.07-.17 0-.33.04-.15.05-.33.05-.33.24-.2 0-.55-.15-.58-.34-.02-.13.12-.1.17-.18.12-.14-.03-.3.03-.43.04-.1.16-.14.26-.2.23-.1.5-.16.35-.4l-.02-.01Z" fill="#1d81a4" fill-rule="nonzero" opacity=".8"/></g></g><g transform="matrix(.99284 0 0 -1.73912 12.231 63.628)"><clipPath id="y"><path d="m21.772 26.41 2.46.02V24.6h-2.46v1.81Z"/></clipPath><g clip-path="url(#y)"><path d="M21.772 26.2c.12 0 .2.03.32.03.05 0 .13.05.17.05.08 0 .1-.1.16-.1.4-.06.35.07.67.2.37.13.4-.13.63-.3.12-.07.23-.06.3-.17.05-.04-.03-.1-.02-.17.04-.03.14-.08.16-.13.06-.18.12-.08 0-.26l-.3-.3c-.1-.04-.25-.04-.35-.1-.13-.05-.15-.18-.23-.25-.55-.4-.94.55-1.08.8-.1.08-.1.28-.15.38-.1.13-.4.1-.2.34" fill="#1d81a4" fill-rule="nonzero" opacity=".8"/></g></g><g transform="matrix(.99284 0 0 -1.73912 12.231 63.628)"><clipPath id="z"><path d="M22.702 25.5h.73v-.77h-.74v.78l.01-.01Z"/></clipPath><g clip-path="url(#z)"><path d="M22.902 24.73c.06.2-.2.27-.2.47 0 .1 0 .2.1.26.22.13.14-.02.22-.1.02-.02 0-.1.02-.13.06-.07.14-.02.18-.07.1-.06.24-.06.2-.22-.06-.2-.38-.05-.48-.2" fill="#1d81a4" fill-rule="nonzero" opacity=".89"/></g></g><g transform="matrix(.99284 0 0 -1.73912 12.231 63.628)"><clipPath id="A"><path d="M30.332 20.1h2.55v1.86h-2.55z"/></clipPath><g clip-path="url(#A)"><path d="M31.082 21.76c.1 0 .3.04.4 0 .2-.06.1-.13.27-.2.14-.07.3 0 .43-.07.2-.13.06-.1.08-.26 0-.16.06-.43.2-.6.14-.16.63-.27.32-.55-.14.14-.22.17-.46.2-.12 0-.14-.05-.3 0-.1 0-.2.1-.3.12-.13.03-.48-.1-.56.08-.08.1.12.18.15.27.05.12.02.12-.03.26-.1.17.04.08-.15.18-.1.08-.22 0-.34.1-.08.06-.08.17-.12.25-.04.05 0 .1-.04.15-.02.03-.15.03-.17.05-.06.08-.2 0-.06.14.04.03.16.04.22.06.14 0 .36-.1.42-.18" fill="#1d81a4" fill-rule="nonzero" opacity=".9"/></g></g><g transform="matrix(.99284 0 0 -1.73912 12.231 63.628)"><clipPath id="B"><path d="M31.922 24.27h3.02v1.97h-3.02z"/></clipPath><g clip-path="url(#B)"><path d="M33.762 25.05c.1 0 .27.05.3.14 0 .1-.22.1-.1.2.05.05.1.04.15.05.07 0 .12.03.16.05.02 0 0 .05.04.06.02.02.08 0 .1 0l.1.12c.12.05.46.03.44.25 0 .14-.13.14-.24.1-.05-.02-.07-.08-.12-.1-.05-.02-.12.02-.18-.02 0 .06.07.1.07.15 0 .07-.04.17-.16.1-.07.06-.12.13-.22.06-.1-.06-.02-.12-.06-.18-.1-.24-.32 0-.45-.12-.04.15 0 .3-.2.13 0-.02-.1-.12-.1-.14-.02-.07.08-.17.05-.22-.1-.2-.17.2-.3.2-.12 0-.07-.1-.14-.15-.1-.05-.18 0-.28-.03-.06-.02-.08-.1-.13-.1-.07-.05-.13 0-.18-.04-.15-.1-.08-.25.02-.34.03-.02.1 0 .13-.03.03-.05 0-.07 0-.1.03 0 .08-.16.08-.18-.04-.1-.25-.17-.33-.23-.14.1-.22-.1-.24-.17 0-.05-.04-.08-.03-.13 0-.12.05-.1.15-.12.36-.08.38.2.47.4.04.1.07.22.24.2.2-.05.04-.24.25-.3.18-.02.2.13.32.2.03 0 .07-.03.12 0 .02 0 0 .07.04.1.02 0 0 .05.03.07.02.02.1 0 .12 0 .04.05.07.08.08.15" fill="#1d81a4" fill-rule="nonzero" opacity=".9"/></g></g><path d="m39.397 31.576-.893-.313s-.1-.139-.447-.226c-.328-.087-.546.174-.546.174l-.626-.035-.298.21-.476-.262-.596.661-.576-.035-.675-.052.457-.417.695.052.754-.626.695.26.477-.173.556-.226.695.035h.496l.318.956-.01.017Z" fill="#1d81a4" fill-rule="nonzero"/><g><path d="M27.412 33.706a3.295 3.295 0 0 0-3.294-3.294H9.294a3.295 3.295 0 0 0 0 6.588h14.824a3.295 3.295 0 0 0 3.294-3.294Z"/><circle cx="16.5" cy="36.5" r="1.5" fill="#fff" transform="matrix(1.09804 0 0 1.09804 -8 -6.373)"/><circle cx="16.5" cy="36.5" r="1.5" fill="#fff" transform="matrix(1.09804 0 0 1.09804 -1.412 -6.373)"/><circle cx="16.5" cy="36.5" r="1.5" fill="#fff" transform="matrix(1.09804 0 0 1.09804 5.176 -6.373)"/><path fill="#fff" stroke="#000" stroke-width="2.0011779" d="M9.294 18.882h8.235v9.06H9.294z"/><path stroke="#000" stroke-width="1.58" d="M9 24h26v7H9z" transform="matrix(.76018 0 0 .47059 -.018 15)"/><path stroke="#000" stroke-width=".9964713" d="M22.47 23h1.648v3.294H22.47z"/><path d="M29.059 26.294v9.882H34l-2.553-2.54-2.388-7.342ZM26.588 32.882h1.647v.824h-1.647z" stroke="#000" stroke-width="2.0011779"/></g><path d="M27.363 2.883c-13.494 0-24.48 10.973-24.48 24.467 0 13.493 10.986 24.48 24.48 24.48 13.493 0 24.466-10.987 24.466-24.48 0-13.494-10.973-24.467-24.466-24.467m0 51.827C12.269 54.71.003 42.443.003 27.35.003 12.283 12.269.017 27.363.017c15.066 0 27.333 12.266 27.333 27.333.013 15.093-12.253 27.36-27.32 27.36" fill="#737577" fill-rule="nonzero"/></svg>