<svg viewBox="0 0 41 41" xmlns="http://www.w3.org/2000/svg" xml:space="preserve" style="fill-rule:evenodd;clip-rule:evenodd;stroke-linejoin:round;stroke-miterlimit:2"><path d="M38.99 22.75c-1.17 0-1.828-1.88-2.8-1.88-.972 0-1.17 1.91-3.03 1.88-1.56-.02-2.79-1.88-2.79-1.88s-1.63 1.88-3.03 1.88c-1.61 0-2.87-1.88-2.87-1.88s-1.183 1.963-2.89 3.107c-.751.503-1.773-2.987-2.726-2.939-1.408.071-2.664 2.286-2.664 2.286s-1.32-1.741-3.01-1.801c-1.69-.06-2.954 2.474-2.954 2.474l2.504 7.283 4.02 6.48s4.05.79 9.41.79 9.217-5.243 9.217-5.243 2.78-4.493 3.603-10.557h.01Z" style="fill:url(#a);fill-rule:nonzero" transform="matrix(1.2606 0 0 .815 -10.3805 8.13001)"/><path d="M16.23 24.95c.08.03.14.08.23.11.06.03.126.113.14.08.477-1.143 2.747 1.37 2.777 1.35.34-.23.553 0 .983 0 .43 0 1.3-1.37 1.33-1.35.294.224.648-.645 1.002-.607.502.054 1.012.923 1.428.607.23-.17.45 1.41.71 1.35.2-.06 2.03-1.22 2.06-1.26.663-.883 1.533-.883 2.23 0 .026.033.08-.03.11-.06.4-.28 1.63 1.32 2.11 1.32s.94-1.17 1.34-1.17c.17 0 .21.06.11-.08-.08-.12-.08 0 0-.11.11-.16-.12.07-.17-.18V9.14h-7.76v16.405c-.28.06-.48-.575-.74-.405L24.04 16h-7.79v8.36m3.08-1.1H18v-1.33h1.33v1.33Zm0-3.5H18v-1.33h1.33v1.33Zm2.96 3.5h-1.33v-1.33h1.33v1.33Zm0-3.5h-1.33v-1.33h1.33v1.33Zm5.62 3.59h-1.33v-1.33h1.33v1.33Zm0-3.47h-1.33v-1.33h1.33v1.33Zm0-3.47h-1.33v-1.33h1.33v1.33Zm0-3.5h-1.33v-1.33h1.33v1.33Zm2.99 10.45h-1.33v-1.33h1.33v1.33Zm0-3.47h-1.33v-1.33h1.33v1.33Zm0-3.47h-1.33v-1.33h1.33v1.33Zm0-3.5h-1.33v-1.33h1.33v1.33Z" style="fill:#85b2ca;fill-rule:nonzero" transform="matrix(1.2828 0 0 1 -8.58986 .65)"/><path d="M33.09 25.59c-.45 0-.88-.14-1.21-.4-.4-.28-.85-.45-1.33-.45-.48 0-.93.14-1.33.45-.71.54-1.72.54-2.43 0-.4-.28-.85-.45-1.33-.45-.48 0-.93.14-1.33.45-.71.54-1.72.54-2.43 0-.4-.28-.85-.45-1.33-.45-.48 0-.93.14-1.33.45-.71.54-1.72.54-2.43 0-.4-.28-.85-.45-1.33-.45-.48 0-.93.14-1.33.45-.71.54-1.72.54-2.43 0-.4-.28-.85-.45-1.33-.45-.48 0-.93.14-1.33.45-.37.25-.76.4-1.21.4-.17 0-.28-.11-.28-.28 0-.17.11-.28.28-.28.31 0 .62-.11.88-.28.48-.37 1.04-.56 1.67-.56.63 0 1.19.2 1.67.56.51.4 1.24.4 1.75 0 .48-.37 1.04-.56 1.67-.56.63 0 1.19.2 1.67.56.51.4 1.24.4 1.75 0 .48-.37 1.04-.56 1.67-.56.63 0 1.19.2 1.67.56.51.4 1.24.4 1.75 0 .48-.37 1.04-.56 1.67-.56.63 0 1.19.2 1.67.56.51.4 1.24.4 1.75 0 .48-.37 1.04-.56 1.67-.56.63 0 1.19.2 1.67.56.25.2.56.28.88.28.17 0 .28.11.28.28 0 .17-.11.28-.28.28h-.02Z" style="fill:#007198;fill-rule:nonzero" transform="matrix(1.3843 0 0 2.9253 -7.69244 -46.6222)"/><path d="M14 35.75v-1.5h6.232l-1.146-1.189L20.108 32 23 35l-2.892 3-1.022-1.061 1.146-1.189H14Z" style="fill:#00576f" transform="matrix(.0007 -.7775 .7495 .0005 -5.10117 46.36547)"/><path d="M14 35.75v-1.5h6.232l-1.146-1.189L20.108 32 23 35l-2.892 3-1.022-1.061 1.146-1.189H14Z" style="fill:#00576f" transform="matrix(.0007 -.7775 .7495 .0005 2.17289 46.36407)"/><path d="M14 35.75v-1.5h6.232l-1.146-1.189L20.108 32 23 35l-2.892 3-1.022-1.061 1.146-1.189H14Z" style="fill:#00576f" transform="matrix(.0007 -.7775 .7495 .0005 -12.7442 46.36634)"/><path d="M20.52 41.03C9.2 41.03 0 31.83 0 20.52 0 9.21 9.2 0 20.52 0s20.52 9.2 20.52 20.52-9.21 20.52-20.52 20.52v-.01Zm0-38.87c-10.13 0-18.36 8.24-18.36 18.36s8.24 18.36 18.36 18.36 18.36-8.24 18.36-18.36S30.64 2.16 20.52 2.16Z" style="fill:#6d6e71;fill-rule:nonzero"/><defs><linearGradient id="a" x1="0" y1="0" x2="1" y2="0" gradientUnits="userSpaceOnUse" gradientTransform="matrix(-3.3093 -15.95 15.3353 -7.611 28.9964 42.7829)"><stop offset="0" style="stop-color:#007198;stop-opacity:1"/><stop offset="1" style="stop-color:#d7e7ef;stop-opacity:1"/></linearGradient></defs></svg>